<svg width="119" height="39" viewBox="0 0 119 39" fill="none" xmlns="http://www.w3.org/2000/svg">
<path d="M17.616 33L12.24 16.2H18.072L22.416 30.384H19.488L24.096 16.2H29.304L33.6 30.384H30.792L35.328 16.2H40.704L35.328 33H29.256L25.752 21.384H27.384L23.688 33H17.616ZM41.9618 33V16.2H50.0498C51.6178 16.2 52.9698 16.456 54.1058 16.968C55.2578 17.48 56.1458 18.216 56.7698 19.176C57.3938 20.12 57.7058 21.24 57.7058 22.536C57.7058 23.832 57.3938 24.952 56.7698 25.896C56.1458 26.824 55.2578 27.536 54.1058 28.032C52.9698 28.528 51.6178 28.776 50.0498 28.776H45.1058L47.6258 26.448V33H41.9618ZM52.0178 33L47.8898 26.88H53.8898L58.0658 33H52.0178ZM47.6258 27.072L45.1058 24.504H49.6898C50.4738 24.504 51.0498 24.328 51.4178 23.976C51.8018 23.624 51.9938 23.144 51.9938 22.536C51.9938 21.928 51.8018 21.448 51.4178 21.096C51.0498 20.744 50.4738 20.568 49.6898 20.568H45.1058L47.6258 18V27.072ZM91.2191 33V20.592H86.2991V16.2H101.803V20.592H96.8831V33H91.2191ZM108.458 22.44H115.946V26.52H108.458V22.44ZM108.842 28.728H117.242V33H103.274V16.2H116.93V20.472H108.842V28.728Z" fill="black"/>
<path d="M58.0206 33L65.3646 16.2H70.9326L78.2766 33H72.4206L66.9966 18.888H69.2046L63.7806 33H58.0206ZM62.3886 30.072L63.8286 25.992H71.5566L72.9966 30.072H62.3886ZM79.1805 33V16.2H84.8445V33H79.1805Z" fill="#D61414"/>
<path d="M10.7052 4.5909L26.8914 16.7402L8.34951 24.6919L10.7052 4.5909Z" fill="#D61414"/>
<path d="M9.60299 24.568C9.34346 24.568 7.17391 25.037 8.46621 24.2985C8.87105 24.0672 9.15743 23.8952 9.60299 23.7742C10.0746 23.6462 10.4017 23.3081 10.8231 23.0833C11.562 22.6893 12.0814 21.9764 12.7978 21.5497C13.5337 21.1112 14.2747 20.7305 15.0713 20.4031C16.0183 20.0139 16.931 19.338 17.8349 18.8449C18.4314 18.5195 19.116 18.2727 19.7557 18.0413C20.7006 17.6995 21.8948 17.488 22.7397 16.9388C23.235 16.6169 23.7497 16.5116 24.3322 16.4586C24.5248 16.4411 25.4194 16.3279 25.567 16.4929C26.4162 17.442 23.3645 18.127 22.8475 18.3108C22.2576 18.5205 21.6281 18.5679 21.0395 18.7665C20.4356 18.9702 19.9082 19.4078 19.3539 19.7122C18.2105 20.3399 17.0895 20.9787 16.0023 21.6967C14.6645 22.5801 13.0105 23.5978 11.367 23.5978" stroke="white" stroke-width="3" stroke-linecap="round"/>
<path d="M10.9024 4.56781C10.3734 4.56781 9.9583 4.60521 9.74113 4.01886C9.42431 3.16345 10.0768 2.8576 10.8074 2.8576C11.2347 2.8576 11.4604 2.93016 11.4725 3.44879C11.4817 3.84801 11.5716 4.18777 11.0924 4.18777" stroke="white" stroke-width="3" stroke-linecap="round"/>
<path d="M19.3375 21.8114C20.0831 21.4564 20.6952 20.8873 21.4522 20.5466C21.8193 20.3814 22.1841 20.3745 22.5597 20.2756C23.8282 19.9418 24.7735 18.9015 25.986 18.4755C26.1204 18.4282 26.5995 18.362 26.6853 18.2446C26.9011 17.9492 27.0895 17.7547 27.1738 17.368C27.2354 17.0852 27.2273 16.7984 27.2273 16.5114C27.2273 15.8946 27.0299 15.587 26.5514 15.1864C26.2137 14.9036 25.8964 14.7046 25.454 14.7046C25.1327 14.7046 24.8115 14.7046 24.4903 14.7046C24.1857 14.7046 23.5785 15.026 23.3293 15.2199C23.0385 15.446 22.669 15.5739 22.3121 15.6415C21.922 15.7153 21.6003 15.927 21.2414 16.0865C20.7951 16.2848 20.4008 16.5049 19.9164 16.6017C19.6126 16.6625 19.3552 16.7641 19.0699 16.8728C18.595 17.0537 18.169 17.3065 17.7114 17.5353C17.1143 17.8338 16.5324 18.1372 15.9079 18.3751C15.5745 18.5021 15.2417 18.5249 14.9443 18.7331C14.8075 18.8289 14.6131 18.9524 14.4558 19.0075C13.8434 19.2218 13.2916 19.6582 12.7326 19.9912C12.1785 20.3213 11.5219 20.5011 10.9258 20.734C10.7269 20.8117 10.4288 20.8445 10.27 20.995C10.0508 21.2026 9.89098 21.4636 9.65434 21.6642C9.28088 21.9807 8.87521 22.2979 8.43641 22.5341C8.24243 22.6386 8.11173 22.8131 7.92448 22.9189C7.69537 23.0484 7.55888 23.0678 7.38243 23.2903C7.13071 23.6077 6.93073 23.8038 6.93073 24.2205C6.93073 24.6294 7.0317 24.9562 7.11141 25.3548C7.16557 25.6256 7.33229 25.7508 7.533 25.9069C8.0064 26.2751 8.70409 26.1478 9.26621 26.1478C9.85113 26.1478 10.0682 25.6525 10.5644 25.425C11.0285 25.2123 11.5212 24.7897 12.05 24.7625C12.4693 24.741 12.9002 24.6236 13.3148 24.5551C13.6433 24.5008 13.983 24.4817 14.3052 24.4012C14.7127 24.2993 15.0866 24.1142 15.4897 24.0064C15.7286 23.9424 15.9982 23.9481 16.2191 23.8324C16.8756 23.4885 17.4663 23.1147 18.0594 22.6814C18.5804 22.3006 19.111 21.853 19.7591 21.691" stroke="black" stroke-linecap="round"/>
<path d="M8.73753 21.9921C8.73753 21.2003 8.68638 20.3932 8.74088 19.6031C8.7834 18.9865 8.90197 18.3599 8.91821 17.7427C8.9246 17.5001 9.11345 17.3053 9.15912 17.0602C9.23286 16.6643 9.26049 16.2302 9.27623 15.8288C9.29587 15.3281 9.37221 14.939 9.48033 14.4503C9.55082 14.1317 9.48837 13.8125 9.52383 13.4934C9.55402 13.2217 9.6722 12.9437 9.73463 12.6769C9.87212 12.0895 9.96631 11.5201 10.0491 10.9237C10.1296 10.3444 10.2152 9.76054 10.3971 9.20384C10.5003 8.88816 10.4518 8.5829 10.5176 8.26363C10.6477 7.63186 10.6046 6.97807 10.6046 6.33301" stroke="black" stroke-linecap="round"/>
<path d="M10.6046 6.33297C10.5192 6.1621 9.98647 6.2454 9.82165 6.05191C9.57833 5.76628 9.22686 5.58919 8.97177 5.30576C8.64001 4.93713 8.29404 4.68021 8.14867 4.16479C8.04556 3.79924 8.03805 3.42338 8.17209 3.07066C8.36136 2.57258 8.48068 2.34966 8.88478 2.0033C9.14433 1.78082 9.43506 1.6252 9.76142 1.52817C10.33 1.35913 10.9125 1.33411 11.508 1.33411C11.9574 1.33411 12.5101 1.36695 12.649 1.87615C12.8119 2.4735 12.9661 3.02132 13.017 3.63278C13.0549 4.08758 13.1088 4.54261 13.0706 5.00128C13.0431 5.33067 12.4387 5.49485 12.1839 5.53663C11.6714 5.62064 11.4013 5.93464 10.966 6.15229" stroke="black" stroke-linecap="round"/>
<path d="M12.6523 5.91138C13.1829 6.30042 13.7503 6.65199 14.2852 7.04231C14.8042 7.42108 15.5355 7.54566 15.9782 8.0461C16.4769 8.60987 16.9176 8.9597 17.5776 9.33095C18.1345 9.6442 18.6459 10.0181 19.1301 10.4418C20.1365 11.3224 21.0331 12.3025 22.1147 13.0918C22.49 13.3656 22.9388 13.6861 23.3728 13.8614C23.7295 14.0054 23.8408 14.2923 24.0353 14.5841" stroke="black" stroke-linecap="round"/>
</svg>
